<?xml version="1.0" encoding="UTF-8" standalone="no"?>
<svg
   width="600"
   height="600.0022"
   viewBox="0 0 12 12.000044"
   fill="none"
   version="1.1"
   id="svg1"
   sodipodi:docname="linkedin.svg"
   inkscape:export-filename="linkedin.svg"
   inkscape:export-xdpi="96"
   inkscape:export-ydpi="96"
   xmlns:inkscape="http://www.inkscape.org/namespaces/inkscape"
   xmlns:sodipodi="http://sodipodi.sourceforge.net/DTD/sodipodi-0.dtd"
   xmlns="http://www.w3.org/2000/svg"
   xmlns:svg="http://www.w3.org/2000/svg">
  <defs
     id="defs1" />
  <sodipodi:namedview
     id="namedview1"
     pagecolor="#ffffff"
     bordercolor="#000000"
     borderopacity="0.25"
     inkscape:showpageshadow="2"
     inkscape:pageopacity="0.0"
     inkscape:pagecheckerboard="0"
     inkscape:deskcolor="#d1d1d1" />
  <path
     fill="#0a66c2"
     d="M 10.225,10.225015 H 8.447 V 7.4400148 c 0,-0.664 -0.012,-1.519 -0.925,-1.519 -0.926,0 -1.068,0.724 -1.068,1.47 V 10.225015 H 4.676 V 4.4980148 h 1.707 v 0.783 h 0.024 c 0.348,-0.594 0.996,-0.95 1.684,-0.925 1.802,0 2.135,1.185 2.135,2.728 L 10.225,10.224015 Z M 2.67,3.7150148 a 1.037,1.037 0 0 1 -1.032,-1.031 c 0,-0.566 0.466,-1.032 1.032,-1.032 0.566,0 1.031,0.466 1.032,1.032 0,0.566 -0.466,1.032 -1.032,1.032 z M 3.559,10.225015 H 1.779 V 4.4980148 h 1.78 z M 11.11,1.4781952e-5 H 0.885 A 0.88,0.88 0 0 0 0,0.86601478 V 11.134015 a 0.88,0.88 0 0 0 0.885,0.866 H 11.111 A 0.882,0.882 0 0 0 12,11.134015 V 0.86501478 a 0.88,0.88 0 0 0 -0.889,-0.864 z"
     id="path1" />
  <path
     style="fill:#ffffff;stroke-width:0.0196802"
     d="M 1.798278,7.3677884 V 4.51416 H 2.6740468 3.5498154 V 7.3677884 10.221417 H 2.6740468 1.798278 Z"
     id="path2" />
  <path
     style="fill:#ffffff;stroke-width:0.0196802"
     d="M 4.691267,7.3677884 V 4.51416 h 0.8364082 0.8364084 v 0.3837638 c 0,0.2940276 0.00575,0.3837038 0.0246,0.3835074 0.01353,-1.4e-4 0.080425,-0.075411 0.1486558,-0.1672676 0.2631448,-0.3542624 0.6269238,-0.590301 1.0826012,-0.7024478 0.1397494,-0.034394 0.226642,-0.041757 0.4760002,-0.040336 0.7562228,0.00431 1.2794078,0.2063208 1.6197716,0.6254214 0.1255318,0.154571 0.2942986,0.5037248 0.3564926,0.7375306 0.13214,0.496752 0.149042,0.8185118 0.149128,2.8388684 l 6e-5,1.6482168 H 9.3357838 8.450175 L 8.450055,8.5928808 C 8.449935,6.854976 8.4447058,6.7426058 8.3512836,6.4689198 8.2998922,6.3183648 8.1909344,6.1597058 8.0817364,6.0764178 7.826951,5.8820864 7.3356134,5.8565106 7.0005662,6.020139 6.6871688,6.173194 6.5193528,6.4786824 6.4633862,6.9980092 6.450878,7.1140738 6.442791,7.7844614 6.442791,8.7052662 V 10.221417 H 5.5670222 4.6912536 Z"
     id="path3" />
  <path
     style="fill:#ffffff;stroke-width:0.0196802"
     d="M 2.4434272,3.6767098 C 1.984666,3.5654908 1.6582922,3.1544496 1.6551204,2.6839016 1.6508878,2.0559884 2.254915,1.5558366 2.86496,1.68212 c 0.1797726,0.037214 0.3797682,0.1460068 0.514413,0.279828 0.411141,0.408626 0.411141,1.0352812 0,1.4439072 C 3.128908,3.6547882 2.775211,3.757145 2.4434272,3.6767098 Z"
     id="path4" />
</svg>
