<?xml version="1.0" encoding="UTF-8" standalone="no"?>
<!-- Created with Inkscape (http://www.inkscape.org/) -->

<svg
   width="153.58179mm"
   height="153.5818mm"
   viewBox="0 0 153.58179 153.5818"
   version="1.1"
   id="svg1"
   xmlns:inkscape="http://www.inkscape.org/namespaces/inkscape"
   xmlns:sodipodi="http://sodipodi.sourceforge.net/DTD/sodipodi-0.dtd"
   xmlns="http://www.w3.org/2000/svg"
   xmlns:svg="http://www.w3.org/2000/svg">
  <sodipodi:namedview
     id="namedview1"
     pagecolor="#ffffff"
     bordercolor="#000000"
     borderopacity="0.25"
     inkscape:showpageshadow="2"
     inkscape:pageopacity="0.0"
     inkscape:pagecheckerboard="0"
     inkscape:deskcolor="#d1d1d1"
     inkscape:document-units="mm" />
  <defs
     id="defs1" />
  <g
     inkscape:label="Capa 1"
     inkscape:groupmode="layer"
     id="layer1"
     transform="translate(-19.93517,-62.624384)">
    <g
       id="g2"
       transform="matrix(0.59992889,0,0,0.59992889,19.935171,62.624385)">
      <path
         d="M 128,0 C 57.307598,0 0,57.307374 0,128 0,198.69285 57.307822,256 128,256 198.69285,256 256,198.69263 256,128 256,57.307374 198.69285,0 128,0 Z M 27.503973,129.33431 126.66546,228.49603 C 72.214451,227.7863 28.213471,183.78532 27.503973,129.33431 Z M 150.49626,225.98332 30.016676,105.50374 C 40.232822,60.823277 80.222348,27.487171 128,27.487171 c 33.39749,0 62.98493,16.292917 81.26274,41.359236 L 195.34609,81.125855 C 180.51966,59.863763 155.88661,45.948684 128,45.948684 c -35.505149,0 -65.740477,22.552496 -77.16884,54.112956 l 105.10743,105.10742 c 25.52535,-9.24341 45.15652,-30.79047 51.7313,-57.47674 h -43.56726 v -19.6921 h 45.94869 v -4.4e-4 h 18.46151 V 128 c 0,47.77765 -33.33588,87.76718 -78.01657,97.98332 z"
         fill="#744c9e"
         fill-rule="nonzero"
         id="path1" />
    </g>
    <path
       style="fill:#ffffff;stroke-width:0.188908"
       d="m 92.003379,199.45276 c -1.777093,-0.13286 -6.414359,-0.84946 -8.481781,-1.3107 -24.207868,-5.40068 -42.763147,-25.45735 -46.378799,-50.13149 -0.258949,-1.76714 -0.716153,-7.39243 -0.609498,-7.49908 0.02294,-0.0229 13.341813,13.25862 29.597511,29.51456 l 29.55581,29.55627 -1.416578,-0.033 c -0.779117,-0.0181 -1.79912,-0.0616 -2.266665,-0.0966 z"
       id="path2" />
    <path
       style="fill:#ffffff;stroke-width:0.188908"
       d="m 74.161922,162.00295 -36.071029,-36.07432 0.341993,-1.47415 c 0.510903,-2.20222 1.829414,-6.09552 2.930319,-8.65264 3.94947,-9.17358 10.009406,-17.125779 17.840674,-23.411559 17.586417,-14.11575 41.753951,-17.132749 62.388861,-7.78842 7.16523,3.24471 14.01117,8.19816 19.31071,13.97247 1.53744,1.675179 3.86579,4.508519 4.2463,5.167289 0.13165,0.2279 -7.47149,7.08555 -7.90121,7.1265 -0.12774,0.0122 -0.8515,-0.77661 -1.60834,-1.75284 -6.46394,-8.33767 -16.24691,-14.799489 -26.3314,-17.392369 -7.58414,-1.95 -16.237594,-2.08905 -23.633822,-0.37976 -14.336542,3.3132 -26.446473,12.850739 -33.049451,26.029079 -1.061321,2.1182 -2.181796,4.78263 -2.181796,5.18818 0,0.12729 14.181892,14.41313 31.515316,31.74633 l 31.515323,31.51489 1.57868,-0.6088 c 2.32786,-0.89772 6.23881,-2.92612 8.49788,-4.40739 3.1917,-2.0928 5.01354,-3.59335 8.03732,-6.61986 4.98823,-4.99273 8.46455,-10.25926 11.04152,-16.72757 0.7502,-1.88305 1.88989,-5.48758 1.88989,-5.97721 0,-0.21662 -2.12415,-0.2588 -13.03461,-0.2588 h -13.03462 v -5.85613 -5.85614 h 19.26857 19.26856 l -0.001,0.5195 c -0.004,1.31019 -0.40394,6.00988 -0.67086,7.88689 -3.08411,21.68791 -17.95476,40.16988 -38.54306,47.9032 -1.79542,0.67439 -5.67644,1.86463 -6.97231,2.13827 -0.54638,0.11539 -1.86108,-1.1748 -36.637752,-35.95464 z"
       id="path3" />
    <path
       style="fill:#ffffff;stroke-width:0.188908"
       d="M 74.198849,162.03987 C 50.177864,138.01669 38.165458,125.87658 38.166886,125.62485 c 0.0042,-0.74415 1.543929,-5.71648 2.573774,-8.31175 4.591134,-11.56991 12.659939,-21.444659 23.115503,-28.289179 14.161668,-9.27063 31.33675,-12.100182 47.888057,-7.88942 12.59916,3.20531 23.83254,10.51427 32.14309,20.913799 0.76339,0.95528 1.38798,1.77668 1.38798,1.82534 0,0.18186 -7.97563,7.12845 -8.12156,7.07369 -0.0837,-0.0314 -0.76958,-0.86466 -1.52422,-1.8517 -1.98814,-2.60042 -6.45627,-6.9752 -9.24497,-9.05183 -9.58059,-7.134269 -20.45007,-10.420469 -32.457719,-9.813009 -11.687464,0.59125 -22.780877,5.41924 -31.324879,13.632949 -2.800916,2.69264 -4.769671,5.04449 -6.909841,8.25441 -1.644948,2.46716 -4.294638,7.55271 -4.99616,9.58913 l -0.342366,0.99385 31.55719,31.55718 31.557195,31.55719 1.21611,-0.45906 c 3.67892,-1.38874 8.16153,-3.9053 11.69717,-6.56686 7.10623,-5.34942 12.80323,-12.80503 16.15237,-21.13844 0.80884,-2.01257 1.98605,-5.67499 1.98605,-6.17879 0,-0.20545 -2.33799,-0.25035 -13.03461,-0.25035 h -13.03462 v -5.85613 -5.85614 h 19.2872 19.2872 l -0.12648,2.21966 c -0.30677,5.38361 -1.11987,10.27815 -2.45918,14.80322 -5.32276,17.98383 -18.97577,32.60827 -36.67777,39.28744 -1.78142,0.67215 -5.65605,1.86182 -6.96173,2.13754 -0.54638,0.11539 -1.85984,-1.17356 -36.600821,-35.91772 z"
       id="path4" />
  </g>
</svg>
